<svg xmlns="http://www.w3.org/2000/svg" version="1.1" xmlns:xlink="http://www.w3.org/1999/xlink" xmlns:svgjs="http://svgjs.dev/svgjs" width="1500" height="1500" viewBox="0 0 1500 1500"><g transform="matrix(1,0,0,1,-0.21332335329316265,-0.21332335329350371)"><svg viewBox="0 0 334 334" data-background-color="#010536" preserveAspectRatio="xMidYMid meet" height="1500" width="1500" xmlns="http://www.w3.org/2000/svg" xmlns:xlink="http://www.w3.org/1999/xlink"><g id="tight-bounds" transform="matrix(1,0,0,1,0.04749999999998522,0.04750000000001364)"><svg viewBox="0 0 333.90454557049503 333.90454557049503" height="333.90454557049503" width="333.90454557049503"><g><svg></svg></g><g><svg viewBox="0 0 333.90454557049503 333.90454557049503" height="333.90454557049503" width="333.90454557049503"><g><path d="M0 166.952c0-92.205 74.747-166.952 166.952-166.952 92.205 0 166.952 74.747 166.953 166.952 0 92.205-74.747 166.952-166.953 166.953-92.205 0-166.952-74.747-166.952-166.953zM166.952 326.12c87.906 0 159.168-71.262 159.168-159.168 0-87.906-71.262-159.168-159.168-159.168-87.906 0-159.168 71.262-159.168 159.168 0 87.906 71.262 159.168 159.168 159.168z" data-fill-palette-color="tertiary" fill="#fbfbf8" stroke="transparent"></path><ellipse rx="160.27418187383762" ry="160.27418187383762" cx="166.95227278524752" cy="166.95227278524752" fill="#fbfbf8" stroke="transparent" stroke-width="0" fill-opacity="1" data-fill-palette-color="tertiary"></ellipse></g><g transform="matrix(1,0,0,1,98.29488574789103,71.17305217166896)"><svg viewBox="0 0 137.31477407471297 191.55844122715712" height="191.55844122715712" width="137.31477407471297"><g><svg viewBox="0 0 137.31477407471297 191.55844122715712" height="191.55844122715712" width="137.31477407471297"><g><svg viewBox="0 0 213.15844122715714 297.3627492819378" height="191.55844122715712" width="137.31477407471297"><g transform="matrix(1,0,0,1,0,163.36546060101955)"><svg viewBox="0 0 213.15844122715714 133.99728868091825" height="133.99728868091825" width="213.15844122715714"><g id="textblocktransform"><svg viewBox="0 0 213.15844122715714 133.99728868091825" height="133.99728868091825" width="213.15844122715714" id="textblock"><g><svg viewBox="0 0 213.15844122715714 133.99728868091825" height="133.99728868091825" width="213.15844122715714"><g transform="matrix(1,0,0,1,0,0)"><svg width="213.15844122715714" viewBox="1.63 -31.95 50.82 31.95" height="133.99728868091825" data-palette-color="#010536"><path d="M15.35 0L11.2 0 11.2-31.28 15.35-31.28 15.35 0ZM24.93-28.48L1.63-28.48 1.63-31.95 24.93-31.95 24.93-28.48ZM42.2-10.63L33.02-10.63 33.02-14.08 42.1-14.08Q45.37-14.08 46.85-15.71 48.32-17.35 48.32-20.23L48.32-20.23 48.32-22.4Q48.32-25.33 46.86-26.93 45.4-28.53 42.15-28.53L42.15-28.53 33-28.53 33-31.95 42.22-31.95Q47.57-31.95 50.01-29.44 52.45-26.93 52.45-22.53L52.45-22.53 52.45-20.13Q52.45-15.68 49.98-13.15 47.52-10.63 42.2-10.63L42.2-10.63ZM34.42 0L30.32 0 30.32-31.95 34.4-31.95 34.4-13.05 34.42-11.2 34.42 0Z" opacity="1" transform="matrix(1,0,0,1,0,0)" fill="#010536" class="wordmark-text-0" data-fill-palette-color="quaternary" id="text-0"></path></svg></g></svg></g></svg></g></svg></g><g transform="matrix(1,0,0,1,40.71326227438702,0)"><svg viewBox="0 0 131.7319166783831 131.7319166783831" height="131.7319166783831" width="131.7319166783831"><g><svg xmlns="http://www.w3.org/2000/svg" xmlns:xlink="http://www.w3.org/1999/xlink" version="1.0" x="0" y="0" viewBox="10 10 80 80" enable-background="new 0 0 100 100" xml:space="preserve" height="131.7319166783831" width="131.7319166783831" class="icon-icon-0" data-fill-palette-color="quaternary" id="icon-0"><path fill="none" stroke="#010536" stroke-linecap="round" stroke-linejoin="round" stroke-miterlimit="10" d="M78.33 56.667L80.275 72.222z"></path><path fill="none" stroke="#010536" stroke-linecap="round" stroke-linejoin="round" stroke-miterlimit="10" d="M75.689 22.862V19.705C75.021 14.236 70.37 10 64.722 10 59.075 10 54.424 14.235 53.754 19.704V22.861A3.675 3.675 0 0 0 51.293 26.322C51.293 29.467 52.889 32.011 54.875 32.1 56.703 37.731 60.424 41.596 64.722 41.596S72.738 37.732 74.568 32.1C76.554 32.011 78.151 29.467 78.151 26.322 78.15 24.721 77.118 23.371 75.689 22.862"></path><path fill="none" stroke="#010536" stroke-linecap="round" stroke-linejoin="round" stroke-miterlimit="10" d="M63.359 24.58H56.553V26.525C56.553 27.596 57.43 28.472 58.499 28.472H61.416A1.95 1.95 0 0 0 63.358 26.525z"></path><path fill="none" stroke="#010536" stroke-linecap="round" stroke-linejoin="round" stroke-miterlimit="10" d="M56.554 24.58L53.754 22.862z"></path><path fill="none" stroke="#010536" stroke-linecap="round" stroke-linejoin="round" stroke-miterlimit="10" d="M66.081 24.58H72.887V26.525A1.95 1.95 0 0 1 70.943 28.472H68.027A1.95 1.95 0 0 1 66.082 26.525z"></path><path fill="none" stroke="#010536" stroke-linecap="round" stroke-linejoin="round" stroke-miterlimit="10" d="M72.889 24.58L75.69 22.862z"></path><path fill="none" stroke="#010536" stroke-linecap="round" stroke-linejoin="round" stroke-miterlimit="10" d="M63.359 24.58H66.081z"></path><path fill="none" stroke="#010536" stroke-linecap="round" stroke-linejoin="round" stroke-miterlimit="10" d="M62.292 35.745"></path><path fill="none" stroke="#010536" stroke-linecap="round" stroke-linejoin="round" stroke-miterlimit="10" d="M75.689 22.862A10.97 10.97 0 0 1 67.909 19.641H67.909A10.96 10.96 0 0 0 60.132 16.419C56.61 16.419 53.754 19.304 53.754 22.862V19.705C54.424 14.236 59.074 10 64.722 10S75.021 14.235 75.69 19.704V22.862z"></path><path fill="none" stroke="#010536" stroke-linecap="round" stroke-linejoin="round" stroke-miterlimit="10" d="M64.722 48.889A9.7 9.7 0 0 0 72.556 44.908 5.2 5.2 0 0 1 71.11 43.906 5.16 5.16 0 0 1 69.59 40.238V39.809C68.121 40.948 66.471 41.597 64.722 41.597 62.974 41.597 61.324 40.948 59.856 39.809V40.238A5.17 5.17 0 0 1 58.335 43.906 5.2 5.2 0 0 1 56.886 44.905C58.656 47.317 61.503 48.889 64.722 48.889"></path><path fill="none" stroke="#010536" stroke-linecap="round" stroke-linejoin="round" stroke-miterlimit="10" d="M72.792 45.033C72.708 44.999 72.637 44.944 72.556 44.908A9.697 9.697 0 0 1 56.886 44.905C56.808 44.945 56.735 44.997 56.65 45.033L53.235 46.448C55.65 50.248 59.886 52.778 64.721 52.778 69.558 52.778 73.793 50.249 76.21 46.448z"></path><path fill="none" stroke="#010536" stroke-linecap="round" stroke-linejoin="round" stroke-miterlimit="10" d="M58.889 85.556H10V87.78A2.23 2.23 0 0 0 12.223 90H56.667A2.227 2.227 0 0 0 58.889 87.779z"></path><path fill="none" stroke="#010536" stroke-linecap="round" stroke-linejoin="round" stroke-miterlimit="10" d="M58.889 82.219C58.889 84.052 57.389 85.552 55.556 85.552H13.335A3.344 3.344 0 0 1 10 82.219V57.774C10 55.941 11.5 54.439 13.335 54.439H55.556A3.345 3.345 0 0 1 58.889 57.774z"></path><path fill="none" stroke="#010536" stroke-linecap="round" stroke-linejoin="round" stroke-miterlimit="10" d="M55.556 54.439A3.345 3.345 0 0 1 58.889 57.774V72.221H90L89.996 57.395C89.996 54.926 88.996 52.691 87.382 51.074L76.21 46.448C73.793 50.248 69.558 52.778 64.721 52.778 59.886 52.778 55.65 50.249 53.235 46.448L42.063 51.074A8.9 8.9 0 0 0 39.956 54.439z"></path><circle fill="none" stroke="#010536" stroke-linecap="round" stroke-linejoin="round" stroke-miterlimit="10" cx="34.444" cy="70" r="3.3"></circle></svg></g></svg></g><g></g></svg></g></svg></g></svg></g></svg></g><defs></defs></svg><rect width="333.90454557049503" height="333.90454557049503" fill="none" stroke="none" visibility="hidden"></rect></g></svg></g></svg>